<mxfile host="app.diagrams.net" modified="2023-10-12T10:19:12.856Z" agent="Mozilla/5.0 (Windows NT 10.0; Win64; x64) AppleWebKit/537.36 (KHTML, like Gecko) Chrome/117.0.0.0 Safari/537.36" etag="L0FHPgg7z41AMihY7K5H" version="22.0.4" type="device">
  <diagram name="Page-1" id="Lodhdm2Ra8MtBlOqBVw1">
    <mxGraphModel dx="1433" dy="602" grid="1" gridSize="10" guides="1" tooltips="1" connect="1" arrows="1" fold="1" page="1" pageScale="1" pageWidth="850" pageHeight="1100" math="0" shadow="0">
      <root>
        <mxCell id="0" />
        <mxCell id="1" parent="0" />
        <mxCell id="iQcM6JWIGjxpCyTwKVlH-1" value="Mitarbeiter" style="whiteSpace=wrap;html=1;align=center;" vertex="1" parent="1">
          <mxGeometry x="340" y="280" width="100" height="40" as="geometry" />
        </mxCell>
        <mxCell id="iQcM6JWIGjxpCyTwKVlH-2" value="Serviceleistung" style="whiteSpace=wrap;html=1;align=center;" vertex="1" parent="1">
          <mxGeometry x="680" y="280" width="100" height="40" as="geometry" />
        </mxCell>
        <mxCell id="iQcM6JWIGjxpCyTwKVlH-3" value="hat" style="shape=rhombus;perimeter=rhombusPerimeter;whiteSpace=wrap;html=1;align=center;" vertex="1" parent="1">
          <mxGeometry x="330" y="360" width="120" height="60" as="geometry" />
        </mxCell>
        <mxCell id="iQcM6JWIGjxpCyTwKVlH-4" value="Buchung" style="whiteSpace=wrap;html=1;align=center;" vertex="1" parent="1">
          <mxGeometry x="340" y="460" width="100" height="40" as="geometry" />
        </mxCell>
        <mxCell id="iQcM6JWIGjxpCyTwKVlH-5" value="" style="endArrow=none;html=1;rounded=0;" edge="1" parent="1" source="iQcM6JWIGjxpCyTwKVlH-1" target="iQcM6JWIGjxpCyTwKVlH-3">
          <mxGeometry relative="1" as="geometry">
            <mxPoint x="500" y="480" as="sourcePoint" />
            <mxPoint x="660" y="480" as="targetPoint" />
          </mxGeometry>
        </mxCell>
        <mxCell id="iQcM6JWIGjxpCyTwKVlH-6" value="1" style="edgeLabel;html=1;align=center;verticalAlign=middle;resizable=0;points=[];" vertex="1" connectable="0" parent="iQcM6JWIGjxpCyTwKVlH-5">
          <mxGeometry x="-0.1935" y="-1" relative="1" as="geometry">
            <mxPoint as="offset" />
          </mxGeometry>
        </mxCell>
        <mxCell id="iQcM6JWIGjxpCyTwKVlH-8" value="" style="endArrow=none;html=1;rounded=0;" edge="1" parent="1" source="iQcM6JWIGjxpCyTwKVlH-4" target="iQcM6JWIGjxpCyTwKVlH-3">
          <mxGeometry relative="1" as="geometry">
            <mxPoint x="400" y="330" as="sourcePoint" />
            <mxPoint x="400" y="370" as="targetPoint" />
          </mxGeometry>
        </mxCell>
        <mxCell id="iQcM6JWIGjxpCyTwKVlH-9" value="N" style="edgeLabel;html=1;align=center;verticalAlign=middle;resizable=0;points=[];" vertex="1" connectable="0" parent="iQcM6JWIGjxpCyTwKVlH-8">
          <mxGeometry x="-0.1935" y="-1" relative="1" as="geometry">
            <mxPoint as="offset" />
          </mxGeometry>
        </mxCell>
        <mxCell id="iQcM6JWIGjxpCyTwKVlH-10" value="Kunde" style="whiteSpace=wrap;html=1;align=center;" vertex="1" parent="1">
          <mxGeometry x="680" y="460" width="100" height="40" as="geometry" />
        </mxCell>
        <mxCell id="iQcM6JWIGjxpCyTwKVlH-11" value="hat" style="shape=rhombus;perimeter=rhombusPerimeter;whiteSpace=wrap;html=1;align=center;" vertex="1" parent="1">
          <mxGeometry x="500" y="270" width="120" height="60" as="geometry" />
        </mxCell>
        <mxCell id="iQcM6JWIGjxpCyTwKVlH-12" value="" style="endArrow=none;html=1;rounded=0;" edge="1" parent="1" source="iQcM6JWIGjxpCyTwKVlH-1" target="iQcM6JWIGjxpCyTwKVlH-11">
          <mxGeometry relative="1" as="geometry">
            <mxPoint x="500" y="340" as="sourcePoint" />
            <mxPoint x="660" y="340" as="targetPoint" />
          </mxGeometry>
        </mxCell>
        <mxCell id="iQcM6JWIGjxpCyTwKVlH-16" value="N" style="edgeLabel;html=1;align=center;verticalAlign=middle;resizable=0;points=[];" vertex="1" connectable="0" parent="iQcM6JWIGjxpCyTwKVlH-12">
          <mxGeometry x="-0.6203" y="1" relative="1" as="geometry">
            <mxPoint as="offset" />
          </mxGeometry>
        </mxCell>
        <mxCell id="iQcM6JWIGjxpCyTwKVlH-15" value="" style="endArrow=none;html=1;rounded=0;" edge="1" parent="1" source="iQcM6JWIGjxpCyTwKVlH-2" target="iQcM6JWIGjxpCyTwKVlH-11">
          <mxGeometry relative="1" as="geometry">
            <mxPoint x="450" y="310" as="sourcePoint" />
            <mxPoint x="510" y="310" as="targetPoint" />
          </mxGeometry>
        </mxCell>
        <mxCell id="iQcM6JWIGjxpCyTwKVlH-17" value="M" style="edgeLabel;html=1;align=center;verticalAlign=middle;resizable=0;points=[];" vertex="1" connectable="0" parent="iQcM6JWIGjxpCyTwKVlH-15">
          <mxGeometry x="-0.3652" y="-1" relative="1" as="geometry">
            <mxPoint as="offset" />
          </mxGeometry>
        </mxCell>
        <mxCell id="iQcM6JWIGjxpCyTwKVlH-18" value="hat" style="shape=rhombus;perimeter=rhombusPerimeter;whiteSpace=wrap;html=1;align=center;" vertex="1" parent="1">
          <mxGeometry x="500" y="450" width="120" height="60" as="geometry" />
        </mxCell>
        <mxCell id="iQcM6JWIGjxpCyTwKVlH-19" value="" style="endArrow=none;html=1;rounded=0;" edge="1" parent="1" source="iQcM6JWIGjxpCyTwKVlH-4" target="iQcM6JWIGjxpCyTwKVlH-18">
          <mxGeometry relative="1" as="geometry">
            <mxPoint x="450" y="310" as="sourcePoint" />
            <mxPoint x="510" y="310" as="targetPoint" />
          </mxGeometry>
        </mxCell>
        <mxCell id="iQcM6JWIGjxpCyTwKVlH-20" value="N" style="edgeLabel;html=1;align=center;verticalAlign=middle;resizable=0;points=[];" vertex="1" connectable="0" parent="iQcM6JWIGjxpCyTwKVlH-19">
          <mxGeometry x="-0.6203" y="1" relative="1" as="geometry">
            <mxPoint as="offset" />
          </mxGeometry>
        </mxCell>
        <mxCell id="iQcM6JWIGjxpCyTwKVlH-22" value="" style="endArrow=none;html=1;rounded=0;" edge="1" parent="1" source="iQcM6JWIGjxpCyTwKVlH-10" target="iQcM6JWIGjxpCyTwKVlH-18">
          <mxGeometry relative="1" as="geometry">
            <mxPoint x="400" y="330" as="sourcePoint" />
            <mxPoint x="400" y="370" as="targetPoint" />
          </mxGeometry>
        </mxCell>
        <mxCell id="iQcM6JWIGjxpCyTwKVlH-23" value="1" style="edgeLabel;html=1;align=center;verticalAlign=middle;resizable=0;points=[];" vertex="1" connectable="0" parent="iQcM6JWIGjxpCyTwKVlH-22">
          <mxGeometry x="-0.1935" y="-1" relative="1" as="geometry">
            <mxPoint as="offset" />
          </mxGeometry>
        </mxCell>
        <mxCell id="iQcM6JWIGjxpCyTwKVlH-25" value="Raum" style="whiteSpace=wrap;html=1;align=center;" vertex="1" parent="1">
          <mxGeometry x="10" y="460" width="100" height="40" as="geometry" />
        </mxCell>
        <mxCell id="iQcM6JWIGjxpCyTwKVlH-26" value="hat" style="shape=rhombus;perimeter=rhombusPerimeter;whiteSpace=wrap;html=1;align=center;" vertex="1" parent="1">
          <mxGeometry y="540" width="120" height="60" as="geometry" />
        </mxCell>
        <mxCell id="iQcM6JWIGjxpCyTwKVlH-27" value="Raumart" style="whiteSpace=wrap;html=1;align=center;" vertex="1" parent="1">
          <mxGeometry x="10" y="640" width="100" height="40" as="geometry" />
        </mxCell>
        <mxCell id="iQcM6JWIGjxpCyTwKVlH-28" value="hat" style="shape=rhombus;perimeter=rhombusPerimeter;whiteSpace=wrap;html=1;align=center;" vertex="1" parent="1">
          <mxGeometry x="330" y="540" width="120" height="60" as="geometry" />
        </mxCell>
        <mxCell id="iQcM6JWIGjxpCyTwKVlH-29" value="Ressource" style="whiteSpace=wrap;html=1;align=center;" vertex="1" parent="1">
          <mxGeometry x="340" y="640" width="100" height="40" as="geometry" />
        </mxCell>
        <mxCell id="iQcM6JWIGjxpCyTwKVlH-30" value="" style="endArrow=none;html=1;rounded=0;" edge="1" parent="1" source="iQcM6JWIGjxpCyTwKVlH-4" target="iQcM6JWIGjxpCyTwKVlH-28">
          <mxGeometry relative="1" as="geometry">
            <mxPoint x="450" y="490" as="sourcePoint" />
            <mxPoint x="510" y="490" as="targetPoint" />
          </mxGeometry>
        </mxCell>
        <mxCell id="iQcM6JWIGjxpCyTwKVlH-31" value="N" style="edgeLabel;html=1;align=center;verticalAlign=middle;resizable=0;points=[];" vertex="1" connectable="0" parent="iQcM6JWIGjxpCyTwKVlH-30">
          <mxGeometry x="-0.6203" y="1" relative="1" as="geometry">
            <mxPoint as="offset" />
          </mxGeometry>
        </mxCell>
        <mxCell id="iQcM6JWIGjxpCyTwKVlH-32" value="" style="endArrow=none;html=1;rounded=0;" edge="1" parent="1" source="iQcM6JWIGjxpCyTwKVlH-29" target="iQcM6JWIGjxpCyTwKVlH-28">
          <mxGeometry relative="1" as="geometry">
            <mxPoint x="690" y="310" as="sourcePoint" />
            <mxPoint x="630" y="310" as="targetPoint" />
          </mxGeometry>
        </mxCell>
        <mxCell id="iQcM6JWIGjxpCyTwKVlH-33" value="M" style="edgeLabel;html=1;align=center;verticalAlign=middle;resizable=0;points=[];" vertex="1" connectable="0" parent="iQcM6JWIGjxpCyTwKVlH-32">
          <mxGeometry x="-0.3652" y="-1" relative="1" as="geometry">
            <mxPoint as="offset" />
          </mxGeometry>
        </mxCell>
        <mxCell id="iQcM6JWIGjxpCyTwKVlH-44" value="hat" style="shape=rhombus;perimeter=rhombusPerimeter;whiteSpace=wrap;html=1;align=center;" vertex="1" parent="1">
          <mxGeometry y="360" width="120" height="60" as="geometry" />
        </mxCell>
        <mxCell id="iQcM6JWIGjxpCyTwKVlH-45" value="Standort" style="whiteSpace=wrap;html=1;align=center;" vertex="1" parent="1">
          <mxGeometry x="10" y="280" width="100" height="40" as="geometry" />
        </mxCell>
        <mxCell id="iQcM6JWIGjxpCyTwKVlH-46" value="" style="endArrow=none;html=1;rounded=0;" edge="1" parent="1" target="iQcM6JWIGjxpCyTwKVlH-44">
          <mxGeometry relative="1" as="geometry">
            <mxPoint x="60" y="320" as="sourcePoint" />
            <mxPoint x="180" y="310" as="targetPoint" />
          </mxGeometry>
        </mxCell>
        <mxCell id="iQcM6JWIGjxpCyTwKVlH-47" value="1" style="edgeLabel;html=1;align=center;verticalAlign=middle;resizable=0;points=[];" vertex="1" connectable="0" parent="iQcM6JWIGjxpCyTwKVlH-46">
          <mxGeometry x="-0.6203" y="1" relative="1" as="geometry">
            <mxPoint as="offset" />
          </mxGeometry>
        </mxCell>
        <mxCell id="iQcM6JWIGjxpCyTwKVlH-48" value="" style="endArrow=none;html=1;rounded=0;" edge="1" parent="1" source="iQcM6JWIGjxpCyTwKVlH-25" target="iQcM6JWIGjxpCyTwKVlH-44">
          <mxGeometry relative="1" as="geometry">
            <mxPoint x="30" y="430" as="sourcePoint" />
            <mxPoint x="300" y="130" as="targetPoint" />
          </mxGeometry>
        </mxCell>
        <mxCell id="iQcM6JWIGjxpCyTwKVlH-49" value="N" style="edgeLabel;html=1;align=center;verticalAlign=middle;resizable=0;points=[];" vertex="1" connectable="0" parent="iQcM6JWIGjxpCyTwKVlH-48">
          <mxGeometry x="-0.3652" y="-1" relative="1" as="geometry">
            <mxPoint as="offset" />
          </mxGeometry>
        </mxCell>
        <mxCell id="iQcM6JWIGjxpCyTwKVlH-50" value="" style="endArrow=none;html=1;rounded=0;" edge="1" parent="1" source="iQcM6JWIGjxpCyTwKVlH-27" target="iQcM6JWIGjxpCyTwKVlH-26">
          <mxGeometry relative="1" as="geometry">
            <mxPoint x="70" y="330" as="sourcePoint" />
            <mxPoint x="70" y="370" as="targetPoint" />
          </mxGeometry>
        </mxCell>
        <mxCell id="iQcM6JWIGjxpCyTwKVlH-51" value="1" style="edgeLabel;html=1;align=center;verticalAlign=middle;resizable=0;points=[];" vertex="1" connectable="0" parent="iQcM6JWIGjxpCyTwKVlH-50">
          <mxGeometry x="-0.6203" y="1" relative="1" as="geometry">
            <mxPoint as="offset" />
          </mxGeometry>
        </mxCell>
        <mxCell id="iQcM6JWIGjxpCyTwKVlH-52" value="" style="endArrow=none;html=1;rounded=0;" edge="1" parent="1" source="iQcM6JWIGjxpCyTwKVlH-25" target="iQcM6JWIGjxpCyTwKVlH-26">
          <mxGeometry relative="1" as="geometry">
            <mxPoint x="70" y="470" as="sourcePoint" />
            <mxPoint x="70" y="430" as="targetPoint" />
          </mxGeometry>
        </mxCell>
        <mxCell id="iQcM6JWIGjxpCyTwKVlH-53" value="N" style="edgeLabel;html=1;align=center;verticalAlign=middle;resizable=0;points=[];" vertex="1" connectable="0" parent="iQcM6JWIGjxpCyTwKVlH-52">
          <mxGeometry x="-0.3652" y="-1" relative="1" as="geometry">
            <mxPoint as="offset" />
          </mxGeometry>
        </mxCell>
        <mxCell id="iQcM6JWIGjxpCyTwKVlH-54" value="hat" style="shape=rhombus;perimeter=rhombusPerimeter;whiteSpace=wrap;html=1;align=center;" vertex="1" parent="1">
          <mxGeometry x="160" y="450" width="120" height="60" as="geometry" />
        </mxCell>
        <mxCell id="iQcM6JWIGjxpCyTwKVlH-55" value="N" style="endArrow=none;html=1;rounded=0;" edge="1" parent="1" source="iQcM6JWIGjxpCyTwKVlH-4" target="iQcM6JWIGjxpCyTwKVlH-54">
          <mxGeometry x="-0.583" y="-2" relative="1" as="geometry">
            <mxPoint x="350" y="490" as="sourcePoint" />
            <mxPoint x="240" y="550" as="targetPoint" />
            <mxPoint as="offset" />
          </mxGeometry>
        </mxCell>
        <mxCell id="iQcM6JWIGjxpCyTwKVlH-57" value="" style="endArrow=none;html=1;rounded=0;" edge="1" parent="1" source="iQcM6JWIGjxpCyTwKVlH-54" target="iQcM6JWIGjxpCyTwKVlH-25">
          <mxGeometry relative="1" as="geometry">
            <mxPoint x="362" y="420" as="sourcePoint" />
            <mxPoint x="259" y="475" as="targetPoint" />
          </mxGeometry>
        </mxCell>
        <mxCell id="iQcM6JWIGjxpCyTwKVlH-58" value="1" style="edgeLabel;html=1;align=center;verticalAlign=middle;resizable=0;points=[];" vertex="1" connectable="0" parent="iQcM6JWIGjxpCyTwKVlH-57">
          <mxGeometry x="-0.1935" y="-1" relative="1" as="geometry">
            <mxPoint x="-20" y="1" as="offset" />
          </mxGeometry>
        </mxCell>
      </root>
    </mxGraphModel>
  </diagram>
</mxfile>
